<?xml version="1.0" standalone="no"?>
<!DOCTYPE svg PUBLIC "-//W3C//DTD SVG 20010904//EN"
 "http://www.w3.org/TR/2001/REC-SVG-20010904/DTD/svg10.dtd">
<svg version="1.0" xmlns="http://www.w3.org/2000/svg"
 width="173.000000pt" height="173.000000pt" viewBox="0 0 173.000000 173.000000"
 preserveAspectRatio="xMidYMid meet">
<metadata>
Created by potrace 1.11, written by Peter Selinger 2001-2013
</metadata>
<g transform="translate(0.000000,173.000000) scale(0.100000,-0.100000)"
fill="#000000" stroke="none">
<path d="M23 1720 c-17 -5 -18 -43 -17 -855 l0 -850 167 -1 c92 -1 167 2 168
5 0 3 3 128 5 276 7 471 12 800 13 805 1 2 15 -22 32 -55 17 -33 53 -102 80
-153 27 -51 99 -190 161 -310 61 -119 119 -230 128 -247 17 -30 17 -30 109
-30 l92 0 28 50 c15 28 75 142 133 255 153 297 239 461 258 493 16 26 17 -3
17 -521 0 -302 3 -553 6 -559 5 -7 277 -11 320 -4 4 0 7 385 7 854 l0 852
-140 -2 c-77 -1 -158 -2 -179 -2 -38 -1 -40 -3 -76 -73 -21 -40 -57 -109 -80
-153 -23 -44 -84 -161 -136 -260 -201 -388 -225 -433 -239 -454 -14 -21 -17
-17 -78 101 -34 68 -112 218 -172 333 -60 116 -144 278 -186 360 l-77 150
-163 0 c-89 0 -171 -2 -181 -5z"/>
</g>
</svg>
