<?xml version="1.0" standalone="no"?>
<!DOCTYPE svg PUBLIC "-//W3C//DTD SVG 20010904//EN"
 "http://www.w3.org/TR/2001/REC-SVG-20010904/DTD/svg10.dtd">
<svg version="1.0" xmlns="http://www.w3.org/2000/svg"
 width="135.000000pt" height="135.000000pt" viewBox="0 0 135.000000 135.000000"
 preserveAspectRatio="xMidYMid meet">
<metadata>
Created by potrace 1.11, written by Peter Selinger 2001-2013
</metadata>
<g transform="translate(0.000000,135.000000) scale(0.100000,-0.100000)"
fill="#000000" stroke="none">
<path d="M523 1334 c-29 -6 -82 -26 -120 -43 -66 -31 -173 -105 -173 -119 0
-4 22 -17 49 -30 95 -43 181 -141 214 -244 6 -17 65 39 288 272 34 36 60 61
57 55 -94 -202 -168 -398 -184 -489 -2 -14 -7 -38 -10 -53 -21 -104 -7 -260
30 -331 20 -39 74 -92 92 -92 8 0 14 -4 14 -8 0 -14 111 -37 175 -36 142 3
260 126 316 329 78 286 -93 608 -379 715 -71 27 -117 34 -219 34 -79 1 -83 2
-83 23 0 30 -7 31 -67 17z"/>
<path d="M173 1032 c-76 -115 -106 -210 -106 -342 0 -58 7 -120 17 -160 49
-184 188 -342 360 -412 56 -22 57 -24 51 -55 -3 -18 -4 -33 -2 -33 2 0 29 -5
58 -11 87 -17 215 -12 302 10 112 29 208 84 296 169 79 76 79 83 1 24 -119
-91 -252 -104 -399 -39 -94 41 -170 146 -188 259 -17 99 0 304 33 405 3 10
-35 -24 -85 -75 l-91 -93 0 84 c0 102 -20 171 -64 219 -31 36 -121 98 -140 98
-6 0 -25 -21 -43 -48z"/>
</g>
</svg>
